<?xml version="1.0" standalone="no"?>
<!DOCTYPE svg PUBLIC "-//W3C//DTD SVG 20010904//EN"
 "http://www.w3.org/TR/2001/REC-SVG-20010904/DTD/svg10.dtd">
<svg version="1.0" xmlns="http://www.w3.org/2000/svg"
 width="500.000000pt" height="180.000000pt" viewBox="0 0 500.000000 180.000000"
 preserveAspectRatio="xMidYMid meet">

<g transform="translate(0.000000,180.000000) scale(0.100000,-0.100000)"
fill="#000000" stroke="none">
<path d="M818 1672 c-27 -14 -50 -18 -85 -15 -43 5 -53 2 -82 -23 -34 -29 -81
-114 -81 -147 0 -17 -6 -18 -59 -12 l-59 7 -16 -49 c-19 -60 -46 -212 -46
-264 0 -22 -4 -39 -10 -39 -16 0 -80 61 -96 91 -12 23 -12 32 -2 49 10 15 10
22 0 32 -27 27 -6 94 42 135 65 56 6 128 -65 80 l-35 -24 -17 24 c-25 32 -58
29 -110 -11 -25 -19 -53 -36 -63 -38 -23 -4 -39 -47 -31 -80 10 -38 49 -90 86
-115 19 -13 39 -33 45 -46 6 -12 20 -23 31 -25 11 -2 31 -21 45 -44 30 -49
114 -126 145 -134 21 -5 23 -12 29 -118 9 -136 19 -186 43 -204 10 -7 55 -24
101 -39 l82 -25 0 -123 c0 -97 -3 -125 -15 -135 -8 -7 -15 -21 -15 -32 0 -14
-5 -18 -15 -14 -8 3 -28 1 -44 -5 -78 -27 -87 -147 -13 -178 24 -10 39 -10 83
3 29 9 71 16 94 16 69 0 93 46 60 111 -12 21 -13 34 -5 48 16 32 12 62 -10 68
-18 5 -20 14 -20 114 l0 109 39 0 39 0 0 -62 c0 -35 7 -80 16 -101 12 -30 13
-44 5 -59 -8 -16 -7 -24 4 -35 14 -14 12 -18 -11 -38 -22 -19 -27 -32 -27 -70
0 -40 5 -51 33 -76 43 -38 76 -37 113 4 16 17 49 54 74 81 24 27 47 57 50 67
9 27 -11 57 -52 77 -27 12 -39 26 -45 49 -6 22 -15 33 -31 35 -20 3 -22 9 -22
58 0 52 1 55 27 58 52 6 263 98 259 113 -44 162 -60 225 -66 269 -7 52 -7 54
11 40 58 -43 73 -64 68 -87 -4 -13 -1 -30 6 -37 8 -11 8 -20 1 -35 -14 -25
-14 -96 -1 -121 5 -10 34 -26 65 -35 47 -15 57 -16 71 -4 10 8 26 13 36 11 26
-5 88 60 88 91 0 49 -61 147 -91 147 -4 0 -14 12 -21 28 -8 17 -23 28 -38 30
-14 2 -45 23 -70 47 -25 24 -67 56 -95 72 l-50 29 -3 141 -3 141 -35 -10 c-19
-5 -40 -8 -46 -6 -6 2 -11 35 -12 73 -4 142 -83 216 -178 167z m107 -18 c31
-21 55 -83 55 -147 l0 -52 -72 0 -72 0 -3 55 c-2 30 -12 72 -23 92 l-19 37 22
16 c28 19 81 19 112 -1z m-175 -14 c13 -8 13 -13 -2 -37 -9 -15 -24 -54 -33
-85 l-16 -58 -54 0 c-30 0 -56 4 -59 8 -10 16 14 79 44 121 40 54 85 74 120
51z m54 -60 c9 -22 16 -61 16 -85 l0 -45 -51 0 -52 0 7 40 c7 42 45 130 57
130 4 0 14 -18 23 -40z m-608 -74 c8 -14 14 -35 12 -47 -4 -28 -28 -38 -28
-12 0 11 -11 30 -25 43 -19 18 -22 26 -13 32 22 13 37 9 54 -16z m132 2 c18
-18 16 -22 -27 -72 -40 -46 -61 -110 -42 -129 20 -20 11 -36 -32 -62 -49 -28
-72 -32 -80 -11 -3 8 8 19 29 29 19 9 34 21 34 27 0 6 -11 3 -25 -6 -54 -35
-136 15 -165 100 -21 64 25 101 70 56 41 -41 16 -89 -26 -49 -13 12 -27 19
-31 15 -11 -10 35 -46 58 -46 10 0 24 9 31 20 7 11 20 20 30 20 9 0 20 5 23
10 3 6 15 10 25 10 13 0 22 9 26 28 14 57 71 91 102 60z m-183 -33 c28 -28 31
-38 11 -54 -10 -8 -20 -4 -45 19 -33 33 -38 45 -18 53 22 9 28 7 52 -18z m388
-20 c27 -5 28 -8 22 -44 -4 -23 -2 -42 4 -45 15 -10 30 26 24 58 l-6 29 48 -6
c26 -4 79 -7 116 -7 76 0 84 -8 53 -55 -9 -13 -13 -29 -9 -35 13 -21 29 -4 40
41 l11 44 58 3 c53 3 58 1 51 -15 -46 -115 -51 -599 -8 -772 l6 -24 -114 6
c-127 8 -265 34 -351 66 l-57 22 -8 57 c-15 107 -9 439 11 536 23 117 39 156
63 151 10 -2 31 -6 46 -10z m460 -31 c20 -7 8 -60 -27 -110 -29 -43 -33 -32
-15 46 16 75 16 74 42 64z m79 -116 c-2 -68 -6 -125 -8 -127 -2 -2 -15 -1 -29
3 -23 6 -25 10 -24 64 1 31 4 82 7 112 6 47 10 55 32 61 14 4 25 7 26 8 1 1
-1 -54 -4 -121z m-701 -220 c-4 -22 -14 -22 -50 -3 -57 29 -103 103 -81 130
10 12 22 4 73 -48 39 -39 61 -68 58 -79z m746 47 c71 -33 157 -113 142 -131
-20 -24 -63 -16 -95 17 -16 17 -50 44 -76 61 -28 18 -48 39 -51 54 -6 31 12
31 80 -1z m-57 -100 c24 -12 30 -25 40 -72 6 -32 13 -64 15 -71 11 -34 -71 41
-94 85 -14 27 -14 73 -1 73 6 0 24 -7 40 -15z m268 -37 c7 -7 12 -20 12 -30 0
-10 6 -18 13 -18 33 0 87 -84 87 -135 0 -33 -41 -75 -73 -75 -14 0 -29 -4 -32
-10 -9 -14 -33 -12 -82 6 -32 13 -43 23 -48 45 -10 45 12 95 51 119 41 26 46
46 6 23 -33 -19 -65 -12 -56 12 7 17 82 74 100 75 5 0 15 -5 22 -12z m-194
-286 c2 -4 -31 -21 -75 -39 -58 -23 -77 -27 -70 -16 5 9 33 26 62 39 59 25 75
28 83 16z m-434 -218 l0 -125 -32 3 -33 3 0 106 c1 112 10 139 46 139 18 0 19
-9 19 -126z m170 67 c0 -15 5 -42 11 -60 9 -25 8 -36 -5 -56 -9 -14 -21 -25
-26 -25 -31 0 -54 132 -28 158 23 23 48 14 48 -17z m160 -213 c0 -12 -19 -42
-42 -69 -24 -26 -55 -61 -69 -78 -19 -22 -35 -31 -55 -30 -24 1 -25 3 -7 6 13
2 33 18 45 34 13 17 40 49 60 72 20 24 40 55 43 70 8 30 25 27 25 -5z m-160
-25 c0 -12 -43 -53 -57 -53 -21 0 -15 27 9 44 23 17 48 21 48 9z m-275 -28 c0
-12 -50 -19 -71 -11 -9 3 -12 11 -9 16 8 14 80 9 80 -5z m155 -63 c0 -28 -31
-46 -91 -53 -35 -5 -82 -11 -104 -14 -26 -4 -46 -2 -58 7 -15 12 -12 13 30 14
74 1 175 21 192 38 17 17 31 21 31 8z"/>
<path d="M690 1268 c-24 -26 -27 -84 -5 -114 8 -12 11 -24 8 -28 -3 -3 14 -6
40 -6 25 0 53 -3 63 -7 12 -4 15 -3 10 5 -4 7 0 22 8 34 24 34 20 85 -9 113
-32 33 -86 34 -115 3z m99 -14 c12 -15 21 -38 20 -53 l-1 -26 -10 28 c-9 25
-17 31 -35 25 -4 -2 -6 -13 -5 -25 2 -13 -1 -23 -7 -23 -20 0 -11 -20 12 -30
19 -8 17 -9 -15 -9 -40 -1 -68 25 -68 65 0 31 37 74 65 74 14 0 32 -11 44 -26z"/>
<path d="M478 1260 c-29 -18 -41 -73 -24 -114 8 -20 20 -36 27 -36 8 0 8 -4 1
-13 -9 -10 -1 -11 43 -3 41 8 56 16 69 37 23 39 20 73 -10 108 -27 32 -71 41
-106 21z m80 -17 c11 -10 23 -31 26 -48 6 -30 6 -30 -10 -7 -21 28 -44 29 -37
1 3 -12 0 -25 -7 -29 -16 -10 -4 -30 18 -31 12 0 10 -3 -6 -10 -24 -9 -59 3
-74 25 -15 22 -8 76 12 96 25 25 51 26 78 3z"/>
<path d="M745 1036 c-30 -16 -63 -22 -133 -24 -61 -3 -95 -8 -98 -16 -7 -18
33 -103 52 -110 9 -3 45 -6 80 -6 l64 0 47 72 c66 103 63 124 -12 84z m32 -30
c-12 -18 -32 -28 -71 -36 -72 -15 -150 -10 -154 10 -2 12 11 15 65 17 40 0 89
9 118 20 28 11 52 18 54 17 2 -2 -4 -14 -12 -28z"/>
<path d="M600 850 c36 -11 50 -11 50 0 0 6 -17 10 -37 9 -34 -1 -35 -2 -13 -9z"/>
</g>
</svg>
